<!DOCTYPE svg PUBLIC "-//W3C//DTD SVG 20010904//EN" "http://www.w3.org/TR/2001/REC-SVG-20010904/DTD/svg10.dtd">
<svg version="1.0" xmlns="http://www.w3.org/2000/svg" width="273px" height="206px" viewBox="0 0 2730 2060" preserveAspectRatio="xMidYMid meet">
<g id="layer101" fill="#1a171b" stroke="none">
 <path d="M0 1030 l0 -1030 1365 0 1365 0 0 1030 0 1030 -1365 0 -1365 0 0 -1030z"/>
 </g>
<g id="layer102" fill="#302e31" stroke="none">
 <path d="M0 1030 l0 -1030 1365 0 1365 0 0 1030 0 1030 -1365 0 -1365 0 0 -1030z m2530 891 c0 -6 -4 -13 -10 -16 -5 -3 -17 -21 -26 -40 -9 -19 -26 -44 -38 -57 -23 -24 -166 -233 -166 -243 0 -9 -102 -159 -116 -170 -11 -9 -134 -194 -160 -240 -6 -10 -15 -20 -21 -22 -5 -2 -34 32 -63 77 -29 44 -56 80 -59 80 -4 0 -15 17 -24 38 -9 21 -32 55 -51 77 l-34 38 150 226 c83 124 157 234 166 244 14 15 38 17 234 17 129 0 218 -4 218 -9z m-444 -1173 c49 -72 94 -138 99 -147 56 -88 91 -139 105 -156 10 -11 26 -34 37 -51 10 -17 37 -59 61 -92 23 -34 42 -63 42 -66 0 -3 18 -29 40 -58 22 -29 40 -56 40 -60 0 -5 -106 -8 -235 -8 l-235 0 -10 24 c-5 13 -14 27 -20 31 -6 4 -20 25 -31 48 -10 23 -44 75 -74 116 -30 41 -55 78 -55 83 0 6 -20 39 -45 74 l-44 64 24 26 c14 15 25 32 25 38 0 6 20 38 45 71 25 33 52 76 61 95 20 42 62 100 73 100 4 0 48 -59 97 -132z"/>
 </g>
<g id="layer103" fill="#0079bc" stroke="none">
 <path d="M0 1030 l0 -1030 1365 0 1365 0 0 1030 0 1030 -1365 0 -1365 0 0 -1030z m2526 885 c-10 -27 -530 -795 -538 -795 -4 0 -58 75 -119 166 l-111 166 137 207 c76 113 148 221 162 239 l24 32 226 0 c199 0 224 -2 219 -15z m-270 -1412 c140 -211 254 -386 254 -388 0 -3 -105 -5 -234 -5 l-234 0 -137 210 c-75 116 -138 216 -139 223 -2 18 217 355 228 349 4 -2 122 -177 262 -389z"/>
 </g>
<g id="layer104" fill="#1583c0" stroke="none">
 <path d="M0 1030 l0 -1030 1365 0 1365 0 0 1030 0 1030 -1365 0 -1365 0 0 -1030z m842 541 c131 -195 241 -357 246 -360 4 -3 16 -22 26 -41 10 -19 39 -63 63 -98 l45 -63 -79 -122 c-43 -67 -82 -129 -88 -138 -5 -10 -95 -147 -198 -304 -104 -158 -192 -298 -197 -311 l-10 -24 -235 0 c-129 0 -235 3 -235 6 0 4 6 12 14 18 20 16 272 397 280 424 4 12 11 22 15 22 7 0 87 114 126 181 6 9 31 47 57 85 27 38 48 74 48 81 0 7 4 13 9 13 5 0 19 15 31 34 l21 35 -47 70 c-26 39 -50 71 -55 71 -4 0 -11 10 -15 23 -3 12 -34 63 -69 112 -34 50 -146 215 -249 368 l-187 277 223 -2 223 -3 237 -354z m518 189 c62 -93 116 -170 120 -170 4 0 15 -16 25 -36 9 -20 91 -146 181 -280 90 -133 167 -250 170 -258 4 -10 -32 -75 -97 -173 -56 -87 -108 -167 -114 -178 -6 -11 -58 -92 -117 -180 -58 -88 -109 -170 -112 -182 -4 -13 -12 -23 -17 -23 -5 0 -14 -10 -19 -22 -6 -13 -29 -50 -53 -83 l-43 -60 -214 -3 c-117 -1 -218 2 -223 7 -5 5 110 186 282 445 160 239 291 441 291 448 0 6 -6 19 -13 27 -8 9 -117 169 -242 356 -126 187 -239 351 -252 364 -12 13 -23 28 -23 34 0 15 -72 117 -82 117 -5 0 -6 5 -3 10 4 6 90 10 224 10 l218 0 113 -170z m1166 155 c-10 -27 -530 -795 -538 -795 -4 0 -58 75 -119 166 l-111 166 137 207 c76 113 148 221 162 239 l24 32 226 0 c199 0 224 -2 219 -15z m-270 -1412 c140 -211 254 -386 254 -388 0 -3 -105 -5 -234 -5 l-234 0 -137 210 c-75 116 -138 216 -139 223 -2 18 217 355 228 349 4 -2 122 -177 262 -389z"/>
 </g>
<g id="layer105" fill="#e1e0e1" stroke="none">
 <path d="M0 1030 l0 -1030 1365 0 1365 0 0 1030 0 1030 -1365 0 -1365 0 0 -1030z m652 838 c42 -60 558 -831 571 -854 3 -6 -124 -210 -282 -455 l-289 -444 -236 -3 c-130 -1 -236 0 -236 3 0 3 133 205 296 449 l296 445 -301 445 c-166 245 -304 452 -307 461 -5 13 20 15 219 15 l225 0 44 -62z m604 54 c12 -8 601 -884 610 -907 4 -9 -102 -182 -282 -460 l-289 -445 -238 0 c-188 0 -237 3 -231 13 4 6 137 207 296 444 158 238 288 437 288 442 0 5 -137 210 -303 457 -167 247 -302 452 -300 457 5 9 435 9 449 -1z m1270 -7 c-10 -27 -530 -795 -538 -795 -4 0 -58 75 -119 166 l-111 166 137 207 c76 113 148 221 162 239 l24 32 226 0 c199 0 224 -2 219 -15z m-270 -1412 c140 -211 254 -386 254 -388 0 -3 -105 -5 -234 -5 l-234 0 -137 210 c-75 116 -138 216 -139 223 -2 18 217 355 228 349 4 -2 122 -177 262 -389z"/>
 </g>
<g id="layer106" fill="#d8eaf4" stroke="none">
 <path d="M0 1030 l0 -1030 1365 0 1365 0 0 1030 0 1030 -1365 0 -1365 0 0 -1030z m652 838 c42 -60 558 -831 571 -854 3 -6 -124 -210 -282 -455 l-289 -444 -236 -3 c-130 -1 -236 0 -236 3 0 3 133 205 296 449 l296 445 -301 445 c-166 245 -304 452 -307 461 -5 13 20 15 219 15 l225 0 44 -62z m604 54 c12 -8 601 -884 610 -907 4 -9 -102 -182 -282 -460 l-289 -445 -238 0 c-188 0 -237 3 -231 13 4 6 137 207 296 444 158 238 288 437 288 442 0 5 -137 210 -303 457 -167 247 -302 452 -300 457 5 9 435 9 449 -1z m1274 -7 c0 -17 -89 -155 -100 -155 -3 0 -14 -17 -23 -38 -9 -21 -32 -55 -51 -77 -19 -21 -40 -50 -47 -64 -20 -39 -210 -324 -223 -336 -17 -14 -71 -96 -80 -120 -7 -19 -9 -18 -32 10 -14 17 -33 39 -43 50 -10 11 -21 30 -25 41 -4 12 -17 33 -30 45 -12 13 -46 59 -75 102 l-52 78 41 65 c23 35 45 64 49 64 4 0 15 17 24 39 10 21 28 50 42 65 31 34 85 112 85 124 0 5 9 17 20 27 11 10 20 23 20 29 0 5 12 23 27 38 l27 28 223 0 c192 0 223 -2 223 -15z m-530 -1018 c0 -8 9 -22 20 -32 11 -10 20 -22 20 -27 0 -10 86 -140 138 -208 19 -24 38 -54 42 -65 4 -12 19 -34 32 -51 53 -63 268 -395 263 -404 -4 -6 -101 -10 -240 -10 l-234 0 -41 59 c-22 33 -40 64 -40 69 0 5 -25 42 -55 83 -30 41 -63 92 -74 114 -10 22 -33 57 -50 79 -17 21 -31 41 -31 43 0 2 24 38 53 79 28 42 59 89 68 105 33 59 114 179 122 179 4 0 7 -6 7 -13z"/>
 </g>
<g id="layer107" fill="#ffffff" stroke="none">
 <path d="M0 1030 l0 -1030 1365 0 1365 0 0 1030 0 1030 -1365 0 -1365 0 0 -1030z m633 876 c13 -13 29 -37 37 -53 22 -43 87 -139 115 -169 14 -15 32 -44 42 -65 9 -22 20 -39 24 -39 8 0 79 -107 79 -119 0 -6 8 -18 19 -28 25 -24 284 -415 284 -428 0 -6 -20 -39 -44 -74 -24 -35 -51 -75 -59 -89 -8 -14 -67 -105 -130 -202 -63 -96 -120 -185 -127 -198 -7 -12 -37 -59 -68 -103 -30 -44 -55 -83 -55 -85 0 -3 -23 -38 -50 -79 l-51 -75 -234 0 c-138 0 -236 4 -240 10 -3 5 130 212 295 460 165 247 296 450 292 450 -10 0 -222 314 -222 328 0 6 -4 12 -10 14 -12 4 -247 352 -255 378 -4 11 -10 20 -14 20 -12 0 -101 137 -101 155 0 13 31 15 225 15 l226 0 22 -24z m830 -271 c109 -162 197 -299 197 -303 0 -5 15 -26 33 -48 17 -21 41 -56 51 -76 11 -21 22 -38 26 -38 8 0 93 -126 103 -154 5 -13 -14 -50 -70 -134 -43 -63 -85 -127 -93 -141 -8 -14 -67 -104 -130 -201 -63 -96 -117 -179 -119 -185 -2 -5 -31 -50 -65 -100 -33 -50 -68 -103 -77 -120 l-16 -30 -234 -3 c-128 -1 -239 0 -247 3 -9 3 -3 21 24 62 20 32 45 66 55 76 11 10 19 24 19 33 0 8 7 17 15 20 8 3 24 26 36 51 12 25 33 57 46 71 14 15 34 46 45 68 10 23 32 56 49 75 16 18 29 36 29 41 0 5 59 96 130 203 72 107 130 200 130 206 0 5 -13 30 -30 54 -16 24 -30 48 -30 53 0 5 -11 20 -23 33 -25 25 -232 334 -257 382 -8 16 -24 38 -36 50 -21 22 -197 280 -221 325 l-12 22 238 0 238 0 196 -295z m1067 280 c0 -17 -151 -248 -184 -282 -12 -12 -28 -34 -36 -50 -25 -47 -232 -357 -256 -381 -12 -13 -30 -38 -39 -57 -9 -19 -21 -35 -28 -35 -12 0 -77 92 -77 109 0 6 -8 18 -19 28 -10 10 -46 60 -80 111 l-62 93 41 65 c23 35 45 64 49 64 4 0 15 17 24 39 10 21 28 50 42 65 31 34 85 112 85 124 0 5 9 17 20 27 11 10 20 23 20 29 0 5 12 23 27 38 l27 28 223 0 c193 0 223 -2 223 -15z m-530 -1018 c0 -8 11 -24 25 -37 14 -13 25 -28 25 -34 0 -15 70 -119 87 -129 7 -4 13 -12 13 -17 0 -6 16 -32 35 -59 19 -26 35 -52 35 -57 0 -5 13 -25 29 -45 40 -49 271 -397 271 -409 0 -6 -89 -10 -240 -10 l-239 0 -48 73 c-26 40 -55 84 -63 99 -8 14 -38 59 -65 99 -28 41 -56 85 -63 99 -6 14 -21 37 -33 51 l-21 27 53 77 c30 42 61 90 70 106 33 59 114 179 122 179 4 0 7 -6 7 -13z"/>
 </g>

</svg>